<!-- Generated by IcoMoon.io -->
<svg version="1.1" xmlns="http://www.w3.org/2000/svg" width="946" height="1024" viewBox="0 0 946 1024">
<title></title>
<g id="icomoon-ignore">
</g>
<path fill="#212121" d="M401.977 232.662v92.253l-6.891-1.276c-42.33-7.383-87.402-4.43-125.794 8.366-85.011 28.407-132.685 103.715-128.395 203 2.046 44.51 10.968 75.167 30.235 104.067 27.493 41.415 72.003 66.026 137.115 76.292 47.885 7.595 145.271 2.259 211.156-11.672l4.991-1.116v-561.889h-122.489v92.043zM393.258 420.826l8.72 2.259v195.757l-12.445 1.116c-48.447 4.64-80.37-3.516-100.762-26.018-15.961-17.439-24.118-42.33-24.118-72.917 0-54.213 25.805-90.917 71.229-101.324 13.15-2.953 43.947-2.392 57.377 1.116zM596.82 202.778v62.159h122.489l-0.345-61.807-0.558-61.596-60.682-0.558-60.893-0.345zM596.821 469.494c0 210.242-2.604 237.735-25.454 282.245-14.274 27.845-40.642 51.049-80.159 70.878-10.056 4.994-13.15 7.242-11.109 8.369 1.488 0.904 26.931 13.009 56.393 26.931l53.791 25.454 11.321-5.767c72.003-37.267 104.629-89.441 113.981-182.96 1.276-12.235 2.604-88.878 3.165-193.507l1.116-172.975h-123.050v141.404z"></path>
</svg>
