<!-- Generated by IcoMoon.io -->
<svg version="1.1" xmlns="http://www.w3.org/2000/svg" width="1244" height="1024" viewBox="0 0 1244 1024">
<title></title>
<g id="icomoon-ignore">
</g>
<path fill="#FFFFFF" d="M501.916 96.272v510.741c0 61.47 6.823 70.539 67.871 88.058l-14.632 85.593c-32.566-7.384-63.935-10.686-92.275-21.867-54.085-21.242-62.591-70.262-62.803-120.616-0.695-144.385-0.288-288.783-0.288-433.093v-28.556c-24.83 1.891-47.684 1.677-69.627 5.902-25.246 4.782-39.664 25.528-40.511 55.916-1.196 42.342-0.427 84.683-1.118 127.013-0.341 19.413-1.196 38.892-3.512 58.095-4.357 36.219-21.034 65.692-51.557 85.455 0.288 2.74-0.137 4.782 0.555 5.278 45.787 32.005 53.662 79.964 54.509 130.6 0.641 40.225 0 80.524 0.212 120.761 0.341 60.698 16.103 77.087 77.012 80.947l9.85 1.484v79.19c-42.269-1.066-83.627-2.813-121.461-23.063-42.13-22.578-56.339-61.682-58.371-105.848-2.105-45.716-1.326-91.57-1.751-137.36-0.075-8.294 0.288-16.666-0.212-25.038-3.027-53.027-23.697-76.377-75.891-85.381-0.427-2.392-1.196-4.995-1.196-7.67-0.137-22.23-0.075-44.383-0.075-65.903l3.723-3.375c54.932-13.289 72.931-35.654 73.563-93.052 0.427-36.787-0.641-73.563 0.341-110.35 0.641-24.894 1.677-50.076 6.115-74.484 9.777-53.948 49.017-86.576 111.828-95.020 18.568-2.47 37.273-4.010 55.979-4.29 43.603-0.641 87.283-0.212 133.772-0.212v0zM868.966 928v-80.461l23.063-1.624c43.395-3.512 62.739-22.791 63.861-66.252 1.066-41.632 0-83.276 0.769-124.908 0.341-20.046 1.538-40.299 4.498-60.137 5.133-34.32 22.646-61.892 54.858-82.777-56.967-36.152-58.867-91.359-59.428-146.926-0.427-38.195 0.427-76.377-0.341-114.497-1.066-51.831-20.188-70.748-72.156-73.077l-14.348-0.982v-79.964c45.156 0.982 89.883 2.392 129.478 27.995 36.85 23.842 48.387 61.607 50.15 102.26 2.179 49.229 1.066 98.532 1.965 147.76 0.288 14.482 0.982 29.402 4.709 43.251 9.49 35.654 34.184 54.085 71.669 55.355v77.996c-35.866 1.538-61.543 18.642-71.171 54.367-3.799 13.858-4.782 28.693-5.068 43.114-0.982 48.595 0 97.199-1.751 145.73-2.74 77.012-43.325 119.84-119.989 128.78-19.688 2.314-60.698 4.858-60.698 4.858v0zM887.745 330.26l-18.495 80.599c-42.902-14.211-85.169-23.984-129.478-16.875-27.92 4.498-44.383 16.737-47.821 36.289-3.799 21.171 6.539 39.95 32.142 52.603 21.658 10.686 44.658 18.705 66.951 28.133 13.362 5.694 26.8 11.257 39.807 17.796 62.591 31.227 84.26 71.246 77.087 141.72-4.995 49.375-40.586 85.73-103.177 99.515-74.621 16.389-148.47 11.818-222.805-16.176l16.313-81.159c32.005 7.311 62.454 16.81 93.613 20.536 25.742 3.094 52.541 0.641 78.556-1.965 17.161-1.677 31.582-10.478 35.803-29.751 4.361-19.837-1.274-37.061-18.006-47.261-20.536-12.517-43.039-21.943-64.845-32.423-26.166-12.517-53.45-23.063-78.631-37.348-74.127-41.844-73.425-171.396 9.005-210.785 24.408-11.674 52.117-18.705 79.054-22.505 52.255-7.461 103.102 3.302 155.008 19.058z"></path>
</svg>
