<!-- Generated by IcoMoon.io -->
<svg version="1.1" xmlns="http://www.w3.org/2000/svg" width="1177" height="1024" viewBox="0 0 1177 1024">
<title></title>
<g id="icomoon-ignore">
</g>
<path fill="#fff" d="M587.802 751.804c-49.618-28.739-90.931-53.234-91.807-54.432-1.254-1.715-1.575-12.981-1.507-52.882 0.047-27.887 0.5-51.759 1.005-53.050 0.561-1.432 36.070-22.657 91.111-54.461l90.192-52.114 0.637-101.48-14.349 8.334c-78.88 45.816-165.133 95.315-166.088 95.315-0.653 0-41.445-23.261-90.648-51.692l-89.461-51.692-0.634 103.848c-0.349 57.116-0.76 103.985-0.915 104.153-1.302 1.413-9.658-2.97-48.594-25.485-33.231-19.217-44.886-26.545-45.724-28.75-1.675-4.405-1.491-312.165 0.188-315.303 0.798-1.492 2.044-2.174 3.177-1.74 1.025 0.393 62.731 35.889 137.126 78.879l135.263 78.164 133.932-77.376c73.663-42.557 135.202-78.048 136.755-78.869 6.663-3.523 6.327-11.943 6.327 158.705v157.29l-2.745 2.69c-1.51 1.479-42.123 25.411-90.251 53.182s-87.252 50.905-86.941 51.408c0.311 0.503 19.776 12.002 43.256 25.553l42.691 24.638 180.612-104.385 0.086-51.304c0.047-28.217 0.462-52.253 0.922-53.413 0.96-2.422 88.576-53.403 91.779-53.403 1.163 0 2.449 0.868 2.856 1.93s0.741 48.551 0.741 105.533c0 97.049-0.135 103.738-2.135 105.738-2.966 2.965-273.073 158.931-275.044 158.816-0.878-0.051-42.193-23.606-91.811-52.346zM861.901 379.455c-2.179-2.179-2.146-103.38 0.034-106.236 1.226-1.606 74.788-44.883 87.93-51.73 6.992-3.643 6.928-4.135 6.928 52.8 0 47.918-0.159 51.861-2.169 53.87-2.015 2.015-85.235 50.511-89.368 52.079-1.025 0.389-2.535 0.036-3.355-0.783z"></path>
<path fill="#fff" d="M587.911 750.632c-49.558-28.705-90.588-52.954-91.179-53.887-1.317-2.080-1.446-103.591-0.135-105.655 0.516-0.813 40.998-24.617 89.958-52.899s89.706-51.978 90.545-52.658c1.176-0.954 1.525-12.928 1.525-52.328 0-28.101-0.211-51.092-0.469-51.092s-40.473 23.138-89.367 51.417c-48.894 28.28-89.755 51.65-90.803 51.933s-41.949-22.641-90.892-50.945c-48.943-28.304-89.673-51.732-90.512-52.064-1.213-0.479-1.525 20.663-1.525 103.268 0 88.11-0.26 103.971-1.715 104.529-1.847 0.709-88.169-48.525-90.702-51.732-1.202-1.522-1.521-34.998-1.506-158.166 0.010-86.854 0.492-156.982 1.084-157.917 0.586-0.925 1.538-1.42 2.116-1.1s62.102 35.837 136.72 78.926l135.668 78.344 136.363-78.797c75-43.338 137.065-78.527 137.923-78.198 1.256 0.482 1.56 31.419 1.56 158.603v158.004l-3.265 2.163c-1.796 1.19-42.248 24.698-89.894 52.241s-86.809 50.616-87.029 51.275c-0.219 0.658 19.342 12.616 43.469 26.572l43.868 25.375 181.303-104.769 0.318-52.454c0.291-48.072 0.495-52.609 2.44-54.311 4.515-3.952 87.428-51.039 89.253-50.687 1.74 0.335 1.962 10.67 2.243 104.73 0.246 82.29-0.012 104.758-1.22 106.25-2.046 2.526-272.277 158.445-274.389 158.318-0.907-0.055-42.197-23.586-91.755-52.291zM862.444 378.859c-1.138-1.138-0.987-103.168 0.155-104.964 1.593-2.506 89.729-52.928 91.397-52.288 1.255 0.482 1.573 11.13 1.558 52.19-0.010 28.371-0.463 52.284-1.006 53.14-0.978 1.541-88.761 52.736-90.425 52.736-0.476 0-1.232-0.366-1.679-0.813z"></path>
<path fill="#fff" d="M590.104 751.376c-47.681-27.624-88.176-51.203-89.99-52.397l-3.298-2.172 0.636-106.509 90.158-52.107c49.587-28.659 90.632-52.953 91.211-53.988s0.909-24.291 0.734-51.681c-0.297-46.369-0.464-49.789-2.432-49.634-1.162 0.091-41.645 23.012-89.963 50.936s-88.907 50.77-90.2 50.77c-1.292 0-42.29-23.083-91.105-51.296s-89.489-51.014-90.387-50.67c-1.344 0.516-1.632 18.776-1.632 103.685 0 56.682-0.421 103.319-0.937 103.638-0.779 0.481-76.697-42.642-87.265-49.569l-3.3-2.163v-158.108c0-153.859 0.061-158.092 2.282-157.511 1.255 0.328 62.729 35.529 136.609 78.224s134.897 77.627 135.593 77.627c0.697 0 61.711-34.929 135.587-77.62s135.361-77.892 136.631-78.224c2.258-0.591 2.31 2.951 2.31 157.383 0 136.619-0.24 158.186-1.771 159.457-0.974 0.809-41.434 24.394-89.911 52.412s-88.301 51.443-88.498 52.056c-0.37 1.148 86.311 51.745 88.647 51.745 1.855 0 181.016-103.646 182.102-105.348 0.493-0.772 0.905-24.816 0.915-53.431l0.019-52.026 44.622-25.75c24.542-14.163 45.133-25.75 45.758-25.75 0.694 0 1.014 41.111 0.824 105.817l-0.312 105.817-135.423 78.339c-82.401 47.667-136.617 78.327-138.473 78.307-1.758-0.018-39.772-21.307-89.742-50.257zM863.143 325.756l0.318-52.696 43.921-25.379c24.157-13.959 44.613-25.382 45.459-25.386 1.219-0.005 1.472 10.945 1.22 52.722l-0.318 52.728-43.886 25.354c-24.137 13.945-44.594 25.354-45.459 25.354-1.265 0-1.511-10.322-1.256-52.696z"></path>
<path fill="#fff" d="M587.734 749.389l-90.282-52.269-0.318-52.381c-0.296-48.729-0.168-52.508 1.83-54.209 1.181-1.006 42.363-25.035 91.515-53.399l89.367-51.57v-51.653c0-29.861-0.47-51.943-1.115-52.341-0.613-0.379-41.502 22.647-90.864 51.169s-90.306 51.858-90.986 51.858c-0.68 0-41.609-23.333-90.954-51.851s-90.252-51.851-90.904-51.851c-0.759 0-1.187 37.306-1.187 103.63 0 66.424-0.43 103.896-1.197 104.37-1.257 0.777-87.821-48.689-89.372-51.071-1.265-1.942-1.16-314.030 0.105-314.812 0.571-0.353 62.346 34.782 137.276 78.078l136.237 78.72 136.278-78.736c74.953-43.305 136.709-78.305 137.235-77.779s0.818 71.673 0.647 158.103l-0.31 157.146-84.182 48.688c-46.3 26.778-87.137 50.372-90.748 52.43-5.542 3.159-6.303 3.997-4.88 5.379 0.927 0.9 21.322 12.973 45.323 26.827l43.637 25.19 89.346-51.539c49.14-28.347 90.301-52.348 91.468-53.336 1.946-1.648 2.149-6.158 2.44-54.373l0.318-52.576 43.812-25.329c24.096-13.931 44.547-25.329 45.446-25.329 1.353 0 1.634 17.924 1.634 104.123 0 97.644-0.133 104.239-2.135 105.98-3.579 3.113-270.935 157.13-272.625 157.053-0.867-0.040-42.204-23.593-91.859-52.341zM863.621 377.596c-0.424-0.424-0.77-23.67-0.77-51.659 0-44.568 0.236-51.084 1.899-52.465 4.244-3.522 87.666-51.017 88.597-50.442 0.553 0.342 1.006 23.563 1.006 51.602 0 47.034-0.165 51.123-2.135 52.83-1.758 1.523-76.64 45.053-85.242 49.552-1.422 0.743-2.931 1.005-3.355 0.581z"></path>
<path fill="#fff" d="M593.775 751.395c-47.675-27.635-88.719-51.466-91.21-52.957l-4.529-2.712 0.636-105.45 181.174-104.713v-51.653c0-29.862-0.47-51.944-1.115-52.342-0.613-0.379-41.496 22.644-90.852 51.162l-89.737 51.851-90.972-52.569c-52.947-30.596-91.721-52.282-92.762-51.882-1.554 0.596-1.79 14.288-1.79 103.746 0 56.682-0.412 103.284-0.915 103.56-0.712 0.39-57.93-32.168-83.64-47.592l-4.507-2.704v-156.205c0-104.322 0.409-156.205 1.232-156.205 0.678 0 61.71 34.948 135.627 77.663 122.728 70.921 134.668 77.553 137.547 76.402 1.733-0.693 63.526-36.18 137.317-78.859s134.596-77.168 135.123-76.641c0.526 0.526 0.818 71.673 0.647 158.103l-0.31 157.146-87.901 50.804c-98.203 56.758-95.147 54.922-93.709 56.31 1.766 1.704 86.31 50.34 88.532 50.93 1.858 0.494 177.422-99.645 183.042-104.405 1.946-1.648 2.149-6.158 2.44-54.373l0.318-52.576 43.812-25.329c24.096-13.931 44.547-25.329 45.446-25.329 1.353 0 1.634 17.924 1.634 104.123 0 97.644-0.133 104.239-2.135 105.98-2.042 1.776-270.666 157.211-271.405 157.044-0.196-0.044-39.364-22.691-87.038-50.326zM863.621 377.596c-0.424-0.424-0.77-23.67-0.77-51.659 0-44.568 0.236-51.084 1.899-52.465 4.244-3.522 87.666-51.017 88.597-50.442 0.553 0.342 1.006 23.563 1.006 51.602 0 47.034-0.165 51.123-2.135 52.83-1.758 1.523-76.64 45.053-85.242 49.552-1.422 0.743-2.931 1.005-3.355 0.581z"></path>
<path fill="#fff" d="M592.553 750.773c-47.005-27.293-87.495-50.84-89.977-52.327l-4.514-2.704v-102.139l2.745-2.446c1.51-1.345 41.176-24.587 88.147-51.649s86.912-50.25 88.757-51.531l3.355-2.328v-52.416c0-44.645-0.262-52.517-1.768-53.095-1.011-0.388-39.243 20.957-89.367 49.894-48.18 27.815-88.835 51.215-90.345 52.001-2.098 1.091-3.392 1.090-5.49-0.004-1.51-0.788-42.153-24.193-90.318-52.011-51.099-29.513-88.32-50.292-89.367-49.89-1.56 0.598-1.794 14.176-1.794 103.747 0 56.682-0.412 103.284-0.915 103.56-0.712 0.39-57.93-32.168-83.64-47.592l-4.507-2.704v-156.205c0-104.322 0.409-156.205 1.232-156.205 0.678 0 61.537 34.849 135.243 77.441s134.785 77.738 135.731 78.101c0.952 0.365 62.074-34.215 136.88-77.441 74.338-42.956 135.684-78.101 136.323-78.101 0.731 0 1.163 57.969 1.163 156.182v156.182l-3.965 2.438c-2.181 1.341-43.099 25.064-90.929 52.717-56.583 32.714-86.844 50.873-86.622 51.98 0.283 1.409 89.188 53.868 91.298 53.871 0.371 0 41.821-23.772 92.112-52.827l91.438-52.828 0.318-52.527c0.291-48.158 0.494-52.679 2.44-54.349 2.2-1.889 82.021-48.157 85.155-49.36 1.543-0.592 1.732 12.784 1.461 103.328l-0.312 104.008-118.953 68.756c-153.968 88.996-150.82 87.196-153.369 87.681-1.223 0.232-39.812-21.432-87.648-49.208zM864.362 325.411l0.319-50.893 42.091-24.419c23.15-13.431 43.058-24.699 44.24-25.040 2.031-0.587 2.131 2.175 1.83 50.304l-0.319 50.925-42.091 24.405c-23.15 13.422-43.058 24.676-44.24 25.008-2.030 0.571-2.131-2.197-1.83-50.289z"></path>
<path fill="#fff" d="M679.846 748.941v-50.421l183.614-106.072 0.318-52.529c0.291-48.159 0.494-52.68 2.44-54.351 2.2-1.889 82.021-48.157 85.155-49.36 1.543-0.592 1.732 12.784 1.461 103.326l-0.312 104.006-134.813 77.906c-74.147 42.849-135.5 77.909-136.338 77.911-1.196 0.004-1.525-10.891-1.525-50.417zM544.33 618.203c-23.77-13.713-43.218-25.601-43.218-26.418s39.015-24.034 86.7-51.593c47.685-27.559 88.175-51.081 89.977-52.27l3.277-2.163v-52.471c0-44.693-0.262-52.572-1.768-53.15-1.012-0.388-39.439 21.088-89.864 50.224-48.453 27.996-89.108 51.167-90.345 51.49-2.158 0.564-2.249-1.448-2.249-49.984v-50.572l135.482-78.284c74.515-43.056 136.005-78.284 136.643-78.284 0.729 0 1.161 58.095 1.161 156.014 0 123.341-0.319 156.273-1.525 157.247-0.839 0.678-40.23 23.584-87.537 50.903s-87.701 50.699-89.765 51.957l-3.753 2.287zM864.362 325.411l0.319-50.893 42.091-24.419c23.15-13.431 43.058-24.699 44.24-25.040 2.031-0.587 2.131 2.175 1.83 50.304l-0.319 50.925-42.091 24.405c-23.15 13.422-43.058 24.676-44.24 25.008-2.030 0.571-2.131-2.197-1.83-50.289z"></path>
</svg>
