<!-- Generated by IcoMoon.io -->
<svg version="1.1" xmlns="http://www.w3.org/2000/svg" width="988" height="1024" viewBox="0 0 988 1024">
<title></title>
<g id="icomoon-ignore">
</g>
<path stroke-linejoin="miter" stroke-linecap="butt" stroke-miterlimit="4" stroke-width="22.2666" stroke="#FFFFFF" fill="#FFFFFF" d="M895.827 600.907c-8.978-10.4-24.327-7.556-36.184-5.201-28.514 5.086-59.532 11.003-87.148-0.867 49.318-77.83 88.126-162.814 109.825-252.51 7.897-34.090 13.995-68.965 12.835-104.067-0.867-19.648-3.595-40.564-15.6-56.84-29.709-39.176-72.78-67.73-120.269-80.491-59.313-16.089-122.921-11.298-181.258 6.735-4.825 0.973-9.58-1.201-14.292-1.798-52.947-10.742-111.326-6.509-157.238 24.134-55.117-19.833-114.353-31.803-173.031-25.67-43.636 4.529-87.454 24.805-112.486 61.967-31.655 46.367-35.956 105.558-30.906 159.895 10.179 72.148 27.764 143.166 50.144 212.434 14.746 43.181 30.983 86.703 57.211 124.423 13.324 18.524 31.018 37.196 54.856 40.112 21.176 2.583 40.337-10.548 53.32-26.119 22.45-26.865 45.537-53.251 69.488-78.772 15.645 7.669 32.633 12.084 49.996 13.393-9.39 11.152-17.136 25.704-32.109 30.085-20.173 7.782-43.784 6.735-61.557 20.173-10.253 7.338-10.742 23.314-1.536 31.734 16.65 16.168 41.201 19.648 63.355 21.517 31.393 2.394 63.127-8.158 86.965-28.741-0.155 49.917 0.079 99.982 5.69 149.638 2.809 29.072 15.339 58.041 37.458 77.612 20.845 18.183 50.554 21.963 77.009 17.363 25.966-4.939 52.648-12.722 72.935-30.46 21.551-19.013 30.756-47.71 35.023-75.252 7.749-49.359 13.62-98.936 19.23-148.522 55.493 9.354 118.284-1.275 159.742-41.795 8.865-8.341 17.284-22.791 8.533-34.124zM772.678 131.513c33.304 12.652 62.9 34.613 85.133 62.416 10.593 13.283 11.936 31.131 12.609 47.448 0.482 38.914-7.373 77.35-17.363 114.763-19.122 69.261-48.16 135.643-84.644 197.461-3.595 6.099-7.521 11.971-11.863 17.546-0.342-1.685-1.005-5.129-1.341-6.85 4.529-11.902 11.152-23.121 13.733-35.774 9.127-35.66 1.423-72.367-1.867-108.254-3.446-33.862 8.125-66.835 7.818-100.619 1.315-16.544-5.234-32.179-11.6-47.038-23.015-51.453-59.611-97.217-106.57-128.647-11.447-7.862-24.247-13.359-35.66-21.255 49.917-10.705 103.464-9.354 151.584 8.759zM742.254 420.354c2.92 40.075 14.553 83.108-4.34 121.124-25.33-50.406-58.075-98.526-69.488-154.655-3.219-17.852-4.040-40.45 11.823-52.875 20.129-14.292 46.436-11.073 69.715-9.653-1.005 32.144-10.889 63.685-7.669 96.057zM289.36 657.787c-9.091 10.705-21.369 23.462-36.855 20.279-18.114-5.234-29.64-21.778-39.743-36.638-27.276-43.636-43.705-92.916-58.787-141.821-16.874-57.892-31.097-116.709-39.29-176.513-4.077-45.502-1.536-94.295 21.744-134.823 17.439-30.687 49.952-50.258 84.12-56.653 54.707-10.514 110.803 0.637 163.303 16.65-23.166 25.443-41.201 55.42-51.715 88.239-14.335 43.818-20.879 90.447-17.439 136.507 1.98 32.44 1.12 65.038-3.403 97.217-5.69 42.021 11.185 85.246 42.396 113.603-21.255 24.85-43.784 48.53-64.363 73.982zM337.262 507.24c-5.349-23.803 1.649-47.744 2.435-71.582 1.833-26.978-0.079-54-0.597-80.98 25.224-16.317 54.707-29.072 85.281-27.319 15.828 0.678 30.425 11.863 34.238 27.467 13.882 55.265 18.183 116.788-8.42 169.14-9.285 20.208-16.805 41.122-23.278 62.342-44.228 0.449-81.834-36.934-89.661-79.034zM474.885 655.204c-27.764 37.606-83.335 44.794-123.489 24.326 19.798-9.17 42.954-8.455 62.080-19.753 18.49-9.956 25.818-31.848 43.11-43.11 18.82-2.657 32.554 25.294 18.333 38.505zM713.024 611.272c-10.548 16.988-6.85 37.719-9.432 56.577-6.064 52.875-12.015 105.82-20.618 158.364-4.077 25.181-14.781 51.942-38.539 64.471-24.361 12.389-52.648 20.173-80.039 15.941-26.010-4.563-42.396-28.81-49.769-52.421-5.392-19.798-5.951-40.485-7.487-60.885-2.617-49.211-2.657-98.526-1.389-147.771 1.086-19.23-8.796-39.255-25.966-48.609-8.307-4.676-18.035-5.314-27.319-6.064 7.293-36.184 29.334-67.429 36.9-103.578 9.808-44.717 4.381-91.266-5.654-135.425-4.904-22.040-21.665-41.532-43.966-46.89-34.351-8.647-68.999 4.791-99.721 19.161 3.892-49.917 17.25-101.029 47.823-141.559 22.489-30.164 57.366-50.293 94.6-55.117 61.443-7.818 125.958 9.091 174.784 47.527 40.337 31.882 72.219 75.063 89.4 123.637-28.549-1.005-60.92-2.174-84.007 17.66-20.958 17.66-23.646 47.789-18.934 73.083 10.924 60.169 46.436 111.326 72.629 165.431 6.963 12.686 16.317 23.759 25.224 35.137-10.593 5.349-22.415 10.479-28.435 21.368zM786.517 653.817c-18.859 2.241-38.47 2.92-56.653-3.334 0.079-10.287-0.482-22.489 7.782-30.164 6.549-4.825 15.862-9.285 23.428-4.005 32.179 16.953 69.602 8.681 103.839 4.528-20.914 20.356-49.883 29.858-78.397 32.964zM687.661 341.479c-6.701 5.497 0.523 13.733 6.286 16.316 13.961 8.192 33.077-3.255 33.532-19.195-12.607-5.872-28.435-5.28-39.849 2.879zM440.613 366.921c5.951-3.368 12.233-12.607 5.349-18.183-9.808-7.97-24.065-9.501-36.001-6.286-3.857 1.341-7.897 3.971-7.111 8.681 2.766 16.018 24.213 25.749 37.719 15.793z"></path>
</svg>
