<!-- Generated by IcoMoon.io -->
<svg version="1.1" xmlns="http://www.w3.org/2000/svg" width="1079" height="1024" viewBox="0 0 1079 1024">
<title></title>
<g id="icomoon-ignore">
</g>
<path fill="#FFFFFF" d="M708.423 677.064c32.343-3.35 56.877-31.226 55.769-64.686s-28.993-60.227-62.457-60.227h-2.229c-34.572 1.118-61.336 30.114-60.227 64.686 1.118 16.726 7.809 31.226 17.846 41.262-37.922 74.724-95.914 129.372-182.911 175.103-59.107 31.226-120.455 42.381-181.791 34.572-50.189-6.688-89.22-28.993-113.755-65.806-35.693-54.648-39.031-113.755-8.918-172.873 21.19-42.381 54.648-73.606 75.842-89.22-4.459-14.497-11.154-39.031-14.497-56.877-161.715 117.105-144.989 275.471-95.914 350.195 36.802 55.769 111.525 90.341 194.058 90.341 22.305 0 44.61-2.229 66.915-7.809 142.76-27.884 250.935-112.646 312.283-238.668z"></path>
<path fill="#FFFFFF" d="M904.716 538.763c-84.762-99.258-209.675-153.906-352.431-153.906h-17.846c-10.038-20.076-31.226-33.462-54.648-33.462h-2.229c-34.572 1.118-61.336 30.114-60.227 64.686 1.118 33.462 28.993 60.227 62.457 60.227h2.229c24.534-1.118 45.731-16.726 54.648-37.922h20.076c84.762 0 165.065 24.534 237.559 72.495 55.769 36.802 95.914 84.762 118.222 142.76 18.955 46.839 17.846 92.57-2.229 131.601-31.226 59.107-83.642 91.45-152.798 91.45-44.61 0-86.991-13.388-109.296-23.426-12.267 11.154-34.572 28.993-50.189 40.152 47.96 22.305 97.029 34.572 143.868 34.572 107.067 0 186.249-59.107 216.363-118.222 32.343-64.686 30.114-176.211-53.534-271.011z"></path>
<path fill="#FFFFFF" d="M338.148 696.019c1.118 33.462 28.993 60.227 62.457 60.227h2.229c34.572-1.118 61.336-30.114 60.227-64.686-1.118-33.462-28.993-60.227-62.457-60.227h-2.229c-2.229 0-5.579 0-7.809 1.118-45.731-75.842-64.686-158.367-57.998-247.597 4.459-66.915 26.764-124.913 65.806-172.873 32.343-41.262 94.8-61.336 137.18-62.457 118.222-2.229 168.403 144.989 171.753 204.096 14.497 3.35 39.031 11.154 55.769 16.726-13.388-180.675-124.913-274.361-231.98-274.361-100.379 0-192.947 72.495-229.751 179.561-51.298 142.76-17.846 279.94 44.61 388.116-5.579 7.809-8.918 20.076-7.809 32.343z"></path>
</svg>
