<!-- Generated by IcoMoon.io -->
<svg version="1.1" xmlns="http://www.w3.org/2000/svg" width="1024" height="1024" viewBox="0 0 1024 1024">
<title></title>
<g id="icomoon-ignore">
</g>
<path fill="#fff" d="M845.711 178.289v125.069c0 6.771-1.064 13.252-3.192 19.442-1.935 5.997-4.74 11.607-8.415 16.831-3.676 5.030-8.125 9.576-13.348 13.639-5.030 3.869-10.64 6.964-16.831 9.286v24.375c0 19.926-4.353 38.498-13.058 55.715s-20.893 31.92-36.563 44.108c5.804 5.804 11.22 11.511 16.25 17.121 5.223 5.417 9.673 11.124 13.348 17.121 3.869 5.997 6.868 12.478 8.996 19.442 2.321 6.964 3.482 14.896 3.482 23.795 0 5.61-0.581 11.124-1.741 16.54 6.191 11.994 9.286 24.859 9.286 38.594 0 14.316-2.902 26.697-8.706 37.144-5.804 10.253-13.639 20.313-23.505 30.179l-159.021 159.021h-434.405v-145.962l396.391-396.391c6.384 7.158 12.768 14.122 19.152 20.893 6.577 6.771 12.478 13.832 17.701 21.183s9.479 15.283 12.768 23.795c3.482 8.319 5.223 17.701 5.223 28.148 0 5.61-0.581 11.124-1.741 16.54l2.031 4.643 11.027-10.737h38.014v-45.559c-6.384-2.321-12.188-5.417-17.411-9.286-5.030-3.869-9.383-8.319-13.058-13.348-3.482-5.223-6.287-10.834-8.415-16.831-1.935-6.191-2.902-12.671-2.902-19.442v-125.069zM762.428 619.658c0-4.449-0.774-8.996-2.321-13.639l-70.805 71.095-46.139-46.139-127.391 127.391c-1.354 1.354-2.902 2.321-4.643 2.902s-3.482 0.871-5.223 0.871c-3.869 0-7.351-1.451-10.447-4.353-2.902-2.902-4.353-6.287-4.353-10.156 0-1.741 0.29-3.579 0.871-5.514 0.774-1.741 1.741-3.192 2.902-4.353l163.083-163.083c5.804-5.804 10.737-11.511 14.799-17.121s6.094-12.768 6.094-21.474c0-4.449-0.774-8.996-2.321-13.639-0.774 1.161-2.805 3.482-6.094 6.964s-7.255 7.642-11.898 12.478c-4.643 4.643-9.77 9.673-15.38 15.090-5.417 5.417-10.64 10.543-15.67 15.38-4.836 4.836-9.286 9.189-13.348 13.058-3.869 3.869-6.577 6.577-8.125 8.125-7.932-7.351-15.67-14.896-23.215-22.634s-15.186-15.476-22.925-23.215l-169.177 169.177c-1.161 1.161-2.708 2.128-4.643 2.902-1.741 0.58-3.482 0.871-5.223 0.871-4.063 0-7.545-1.451-10.447-4.353s-4.353-6.384-4.353-10.447c0-1.741 0.29-3.482 0.871-5.223s1.548-3.289 2.902-4.643l204.87-204.87c2.902-2.902 5.61-5.707 8.125-8.415s4.74-5.513 6.674-8.415c1.935-3.095 3.385-6.384 4.353-9.866 1.161-3.482 1.741-7.448 1.741-11.898 0-4.256-0.774-8.706-2.321-13.348l-70.805 71.095-46.139-46.139-256.232 256.522v83.283h375.207l146.253-145.962c5.61-5.61 10.447-11.22 14.509-16.831 4.256-5.804 6.384-12.962 6.384-21.474zM803.925 220.075h-125.069v83.283c0 4.643 0.871 8.415 2.612 11.317 1.935 2.708 4.353 4.836 7.255 6.384 2.902 1.354 6.191 2.225 9.866 2.612s7.448 0.58 11.317 0.58h10.737v41.786h41.786v-41.786h11.027c3.676 0 7.351-0.193 11.027-0.58s6.964-1.257 9.866-2.612c2.902-1.548 5.223-3.676 6.964-6.384 1.741-2.902 2.612-6.674 2.612-11.317zM671.021 481.241c0-3.482-0.484-7.158-1.451-11.027h9.286c11.607 0 22.441-2.128 32.501-6.384 10.253-4.449 19.152-10.447 26.697-17.991s13.445-16.347 17.701-26.407c4.449-10.060 6.674-20.893 6.674-32.501h-41.786v20.893c0 5.804-1.161 11.22-3.482 16.25-2.128 5.030-5.127 9.479-8.996 13.348-3.676 3.676-8.028 6.577-13.058 8.706s-10.447 3.192-16.25 3.192h-20.893l-83.283 83.573 31.34 31.34 51.943-52.233c8.705-8.706 13.058-18.959 13.058-30.759zM491.107 449.32l31.34 31.34 52.233-51.943c4.063-4.063 7.158-8.899 9.286-14.509 2.321-5.61 3.482-11.22 3.482-16.831 0-5.804-1.161-11.414-3.482-16.831-2.128-5.61-5.223-10.447-9.286-14.509zM754.303 564.233c0-12.381-4.256-22.828-12.768-31.34l-83.573 83.573 31.34 31.050 52.233-51.943c4.063-4.063 7.158-8.899 9.286-14.509 2.321-5.61 3.482-11.22 3.482-16.831z"></path>
</svg>
